<global>
ampeg_release=0.85

<group>
group_label=RR1
seq_length=4

<region>
end=91971
hivel=127
key=D3
lovel=86
offset=13945
sample=Cabasa_Hit_MF_D4_RR1.opus

<region>
hivel=85
key=D3
lovel=43
offset=13954
sample=Cabasa_Hit_MP_D4_RR1.opus

<region>
end=60938
hivel=42
key=D3
lovel=0
offset=13910
sample=Cabasa_Hit_P_D4_RR1.opus

<region>
end=121636
hivel=127
key=C3
loop_end=47864
loop_start=25733
loop_xfade=6536
lovel=0
offset=7610
sample=Cabasa_Roll_D4_RR1.opus

<region>
end=79001
hivel=127
key=E3
lovel=0
offset=12623
sample=Cabasa_Turn in Hand_D4_RR1.opus

<group>
group_label=RR2
seq_length=4
seq_position=2

<region>
end=89087
hivel=127
key=D3
lovel=86
offset=13929
sample=Cabasa_Hit_MF_D4_RR2.opus

<region>
hivel=85
key=D3
lovel=43
offset=13912
sample=Cabasa_Hit_MP_D4_RR2.opus

<region>
hivel=42
key=D3
lovel=0
offset=13921
sample=Cabasa_Hit_P_D4_RR2.opus

<region>
end=122017
hivel=127
key=C3
loop_end=49188
loop_start=20596
loop_xfade=4142
lovel=0
offset=8812
sample=Cabasa_Roll_D4_RR2.opus

<region>
end=76424
hivel=127
key=E3
lovel=0
offset=13921
sample=Cabasa_Turn in Hand_D4_RR2.opus

<group>
group_label=RR3
seq_length=4
seq_position=3

<region>
end=90756
hivel=127
key=D3
lovel=86
offset=13942
sample=Cabasa_Hit_MF_D4_RR3.opus

<region>
end=94784
hivel=85
key=D3
lovel=43
offset=13916
sample=Cabasa_Hit_MP_D4_RR3.opus

<region>
hivel=42
key=D3
lovel=0
offset=13912
sample=Cabasa_Hit_P_D4_RR3.opus

<region>
end=118465
hivel=127
key=C3
loop_end=53160
loop_start=21772
loop_xfade=6216
lovel=0
offset=6316
sample=Cabasa_Roll_D4_RR3.opus

<region>
end=83139
hivel=127
key=E3
lovel=0
offset=13817
sample=Cabasa_Turn in Hand_D4_RR3.opus

<group>
group_label=RR4
seq_length=4
seq_position=4

<region>
end=93945
hivel=127
key=D3
lovel=86
offset=13911
sample=Cabasa_Hit_MF_D4_RR4.opus

<region>
end=101052
hivel=85
key=D3
lovel=43
offset=13922
sample=Cabasa_Hit_MP_D4_RR4.opus

<region>
hivel=42
key=D3
lovel=0
offset=13907
sample=Cabasa_Hit_P_D4_RR4.opus

<region>
end=121260
hivel=127
key=C3
loop_end=56210
loop_start=19023
loop_xfade=4524
lovel=0
offset=10031
sample=Cabasa_Roll_D4_RR4.opus

<region>
end=95518
hivel=127
key=E3
lovel=0
offset=12362
sample=Cabasa_Turn in Hand_D4_RR4.opus

